<svg width="467" height="409" viewBox="0 0 467 409" fill="none" xmlns="http://www.w3.org/2000/svg">
<g opacity="0.2">
<path d="M274.589 408.956C378.968 408.956 463.585 399.129 463.585 387.006C463.585 374.884 378.968 365.056 274.589 365.056C170.21 365.056 85.5938 374.884 85.5938 387.006C85.5938 399.129 170.21 408.956 274.589 408.956Z" fill="#470E0E"/>
</g>
<path d="M256.228 85.8409C256.211 85.897 236.059 121.989 192.765 111.636C192.765 111.636 195.857 102.06 212.311 88.5807" fill="#470E0E"/>
<path d="M204.762 104.96C203.329 106.286 204.452 108.677 206.391 108.443C214.402 107.481 222.371 106.19 229.88 103.325C239.21 99.767 247.892 93.4464 252.173 84.4198C244.555 88.4533 236.42 91.4252 227.996 93.2526C226.731 93.5282 225.404 93.7957 224.101 93.7444C222.98 93.6996 221.77 93.0747 220.702 93.2862C218.391 93.7428 215.427 96.4906 213.524 97.8428C210.452 100.023 207.525 102.4 204.762 104.96Z" fill="#FF6161"/>
<path d="M208.064 115.794C203.163 115.794 197.89 115.202 192.233 113.848C191.927 113.776 191.64 113.64 191.389 113.451C191.139 113.262 190.93 113.023 190.776 112.749C190.622 112.475 190.527 112.172 190.496 111.86C190.464 111.547 190.498 111.231 190.595 110.933C190.73 110.516 194.086 100.56 210.875 86.815C211.244 86.512 211.699 86.3332 212.175 86.304C212.175 86.304 223.142 85.6054 234.115 84.9149C239.601 84.5704 245.09 84.2259 249.209 83.9728C251.269 83.8446 252.989 83.7405 254.193 83.6684C256.855 83.5082 257.262 83.4873 258.007 84.4166C258.235 84.7025 258.392 85.0393 258.463 85.3985C258.534 85.7577 258.518 86.1287 258.415 86.4802C258.313 86.8327 242.329 115.794 208.064 115.794ZM196.036 110.015C227.453 116.207 245.615 96.7389 251.801 88.3852C242.839 88.9315 222.757 90.2036 213.2 90.8109C202.631 99.5667 197.922 106.568 196.036 110.015Z" fill="#470E0E"/>
<path d="M397.387 387.202C387.433 387.511 380.842 389.605 370.285 388.222C362.801 387.237 356.793 382.615 356.793 382.615C356.793 382.615 349.891 387.647 336.026 388.222C318.359 388.951 308.895 388.14 291.247 387.693C291.887 379.553 294.992 372.114 299.961 366.506C301.209 365.091 302.585 363.794 304.072 362.632C307.597 359.87 311.894 357.81 316.38 357.855C320.555 357.891 324.476 359.734 328.468 360.964C332.397 362.185 336.928 362.751 340.42 360.609C340.481 360.58 340.539 360.546 340.593 360.508C344.942 353.151 347.996 345.029 349.809 336.635C347.822 329.105 344.362 322.376 339.9 316.414C345.535 313.279 349.636 312.012 353.747 310.744C358.169 319.569 365.243 331.976 365.836 337.02C365.85 337.086 365.86 337.153 365.863 337.22C366.344 342.608 360.85 351.787 358.725 359.026C358.261 360.585 357.814 362.289 358.434 363.794C359.145 365.499 361.04 366.402 362.856 366.775C369.566 368.169 376.634 364.515 383.267 366.219C387.593 367.331 391.097 370.64 393.313 374.516C394.148 375.992 394.846 377.542 395.396 379.146C396.303 381.749 396.895 384.484 397.387 387.202Z" fill="#FEA831"/>
<g opacity="0.2">
<path d="M397.387 387.202C387.433 387.511 380.842 389.605 370.285 388.222C362.801 387.237 356.793 382.615 356.793 382.615C356.793 382.615 349.891 387.647 336.026 388.222C318.359 388.951 308.895 388.14 291.247 387.693C291.887 379.553 294.992 372.114 299.961 366.506C295.174 375.478 306.198 381.836 317.474 367.319C316.032 370.718 322.745 381.996 337.006 376.64C341.258 375.038 345.712 368.283 340.42 360.609C340.481 360.58 340.539 360.546 340.593 360.508C344.942 353.151 347.996 345.029 349.809 336.635C347.822 329.105 344.362 322.376 339.9 316.414C345.535 313.279 349.636 312.012 353.747 310.744C358.169 319.569 365.243 331.976 365.836 337.02C361.843 340.785 358.342 345.141 355.215 349.618C352.235 353.894 349.527 359.099 350.948 364.105C352.663 370.148 359.647 376.262 365.919 376.635C372.192 377.009 379.406 374.222 385.55 375.544C389.481 376.401 392.265 376.603 395.401 379.146C396.303 381.749 396.895 384.484 397.387 387.202Z" fill="#470E0E"/>
</g>
<path d="M269.375 385.633C261.079 385.497 233.512 389.727 228.426 374.73C226.429 379.917 222.919 383.627 218.753 385.45C211.04 388.815 166.224 387.437 149.24 387.437C150.453 380.309 153.106 374.82 156.369 370.526C157.383 369.195 158.486 367.935 159.67 366.753C171.028 355.394 182.278 360.772 188.829 361.264C197.773 361.931 207.016 353.808 212.824 346.524C217.965 340.088 223.444 332.933 228.813 325.548C233.418 319.229 237.922 312.749 242.05 306.431C246.336 309.567 250.42 311.372 254.708 312.156C246.594 323.898 239.61 336.278 233.137 348.932C231.771 352.095 234.04 356.853 237.55 358.785C241.06 360.718 245.3 360.601 249.302 360.388C253.304 360.175 257.507 359.941 261.107 361.701C265.136 363.67 267.698 367.881 268.765 372.239C269.832 376.597 269.613 381.157 269.375 385.633Z" fill="#FEA831"/>
<g opacity="0.2">
<path d="M269.375 385.633C261.079 385.497 233.512 389.727 228.426 374.73C226.429 379.917 222.919 383.627 218.753 385.451C211.04 388.815 166.224 387.437 149.24 387.437C150.453 380.309 153.106 374.82 156.369 370.526C157.054 370.874 157.728 371.23 158.42 371.548C166.397 375.185 175.677 372.732 184.074 370.244C184.675 373.417 188.66 374.474 191.886 374.556C200.648 374.774 209.315 372.702 217.029 368.543C221.906 365.909 227.677 362.389 232.546 364.595C227.04 361.524 224.779 354.239 225.782 347.932C226.839 341.341 230.649 335.56 234.36 330.019C232.258 328.877 230.379 327.363 228.816 325.552C233.421 319.233 237.925 312.752 242.054 306.435C246.339 309.57 250.423 311.376 254.711 312.159C246.597 323.901 239.613 336.281 233.141 348.935C231.809 352.016 233.942 356.626 237.289 358.625C237.8 363.111 242.057 366.949 245.867 368.826C250.994 371.343 256.816 372.031 262.122 374.123C264.846 375.198 267.538 376.847 269.561 378.963V378.973C269.603 381.2 269.494 383.417 269.375 385.633Z" fill="#470E0E"/>
</g>
<path d="M377.414 391.431C374.911 391.431 372.41 391.266 369.927 390.936C364.081 390.167 359.119 387.426 356.698 385.872C353.72 387.506 346.864 390.518 336.138 390.957C323 391.5 314.47 391.201 303.662 390.823C299.796 390.686 295.798 390.547 291.174 390.43C290.803 390.421 290.437 390.335 290.1 390.18C289.762 390.024 289.46 389.802 289.211 389.526C288.963 389.249 288.773 388.926 288.654 388.574C288.535 388.222 288.488 387.849 288.518 387.479C289.389 376.544 294.446 366.703 302.385 360.482C305.549 358.004 310.569 355.044 316.407 355.123C319.978 355.153 323.224 356.284 326.361 357.377C327.366 357.728 328.316 358.058 329.272 358.353C333.254 359.588 336.384 359.635 338.594 358.513C342.401 351.923 345.224 344.595 346.992 336.724C345.166 330.132 342.045 323.861 337.709 318.076C337.476 317.763 337.311 317.405 337.228 317.024C337.144 316.642 337.143 316.248 337.224 315.866C337.306 315.485 337.468 315.125 337.699 314.811C337.931 314.497 338.227 314.236 338.568 314.046C344.466 310.764 348.774 309.437 352.941 308.154C353.559 307.961 354.226 307.994 354.821 308.248C355.416 308.502 355.902 308.96 356.19 309.539C357.189 311.529 358.309 313.679 359.496 315.948C364.757 326.042 368.232 332.952 368.586 336.996C368.945 341.075 366.784 346.188 364.495 351.601C363.311 354.4 362.091 357.294 361.348 359.811C361.093 360.663 360.675 362.07 360.962 362.765C361.192 363.321 362.154 363.853 363.405 364.111C366.185 364.688 369.19 364.226 372.377 363.738C376.121 363.163 379.994 362.568 383.951 363.578C388.615 364.779 392.893 368.272 395.69 373.165C398.191 377.523 399.315 382.458 400.084 386.718C400.153 387.105 400.139 387.502 400.041 387.883C399.943 388.263 399.765 388.619 399.517 388.924C399.27 389.23 398.96 389.478 398.608 389.653C398.255 389.828 397.87 389.924 397.477 389.937C394.05 390.044 390.991 390.374 388.032 390.691C384.539 391.068 381.168 391.431 377.414 391.431ZM356.791 379.888C357.393 379.886 357.978 380.084 358.456 380.45C358.506 380.489 364.011 384.641 370.632 385.513C377.118 386.365 382.13 385.825 387.434 385.253C389.559 385.024 391.733 384.79 394.08 384.63C393.412 381.615 392.488 378.593 390.932 375.884C388.86 372.263 385.816 369.709 382.575 368.876C379.706 368.137 376.544 368.623 373.194 369.137C369.67 369.679 366.028 370.238 362.288 369.458C359.14 368.809 356.87 367.173 355.9 364.851C354.872 362.355 355.638 359.785 356.096 358.249C356.919 355.443 358.204 352.402 359.448 349.461C361.37 344.903 363.37 340.189 363.133 337.464C362.847 334.203 358.299 325.478 354.641 318.468C353.84 316.937 353.074 315.463 352.348 314.05C349.461 314.938 346.649 316.053 343.937 317.384C347.802 323.045 350.679 329.32 352.448 335.943C352.559 336.362 352.569 336.802 352.477 337.225C350.541 346.17 347.334 354.474 342.94 361.898C342.723 362.265 342.424 362.576 342.066 362.807C338.414 365.151 333.565 365.41 327.646 363.574C326.6 363.254 325.563 362.889 324.552 362.538C321.707 361.548 319.02 360.615 316.344 360.588C312.055 360.551 308.223 362.845 305.748 364.784C299.701 369.522 295.62 376.792 294.303 385.039C297.722 385.136 300.823 385.245 303.844 385.359C314.534 385.732 322.981 386.029 335.902 385.495C348.633 384.968 355.119 380.448 355.183 380.402C355.652 380.067 356.215 379.888 356.791 379.888Z" fill="#470E0E"/>
<path d="M346.538 369.969C342.712 368.458 338.867 367.45 334.956 367.237C331.08 366.992 327.097 367.668 323.901 369.39C320.597 371.291 317.853 374.029 315.945 377.329C315 378.981 314.259 380.741 313.737 382.571C313.235 384.416 312.952 386.313 312.894 388.224V388.273C312.866 388.863 312.611 389.42 312.182 389.825C311.752 390.23 311.182 390.453 310.592 390.447C310.001 390.44 309.436 390.205 309.016 389.79C308.595 389.376 308.352 388.814 308.337 388.224C308.267 383.616 309.433 378.915 311.811 374.916C314.189 370.917 317.528 367.5 321.725 365.303C323.836 364.234 326.11 363.526 328.454 363.208C330.727 362.88 333.031 362.84 335.313 363.089C339.831 363.597 344.207 365.321 347.65 368.136C347.848 368.299 347.981 368.528 348.026 368.78C348.07 369.033 348.024 369.293 347.894 369.514C347.764 369.736 347.56 369.904 347.318 369.988C347.075 370.072 346.811 370.068 346.572 369.975L346.538 369.969Z" fill="#470E0E"/>
<path d="M183.573 390.452C176.844 390.452 169.532 390.38 161.894 390.292C156.878 390.231 152.547 390.178 149.237 390.178C148.839 390.178 148.446 390.091 148.085 389.923C147.724 389.756 147.404 389.511 147.147 389.207C146.891 388.903 146.703 388.546 146.598 388.162C146.494 387.778 146.474 387.376 146.541 386.984C148.037 378.212 151.802 370.757 157.733 364.824C167.936 354.621 178.252 356.603 185.081 357.914C186.611 358.207 187.933 358.46 189.035 358.544C189.32 358.564 189.609 358.576 189.895 358.576C198.991 358.576 208.062 348.121 210.687 344.832C221.407 331.408 231.731 317.244 239.761 304.949C239.964 304.638 240.229 304.372 240.538 304.167C240.847 303.961 241.195 303.821 241.561 303.755C241.926 303.688 242.301 303.696 242.663 303.78C243.025 303.863 243.366 304.019 243.666 304.238C247.559 307.087 251.227 308.753 255.202 309.479C255.651 309.561 256.073 309.754 256.429 310.041C256.785 310.328 257.063 310.699 257.239 311.122C257.414 311.544 257.481 312.003 257.433 312.458C257.385 312.913 257.223 313.348 256.964 313.724C249.805 324.086 243.025 335.645 235.629 350.094C234.989 351.739 236.43 355.06 238.875 356.405C241.658 357.938 245.178 357.882 249.16 357.664C253.335 357.436 258.069 357.183 262.315 359.25C266.712 361.4 270.033 365.899 271.428 371.596C272.601 376.39 272.337 381.379 272.104 385.784C272.068 386.482 271.765 387.139 271.258 387.621C270.752 388.103 270.08 388.373 269.381 388.374H269.334C268.113 388.355 266.33 388.442 264.27 388.543C254.072 389.043 236.232 389.919 228.53 380.501C226.302 383.866 223.326 386.444 219.853 387.963C215.32 389.943 201.532 390.452 183.573 390.452ZM152.602 384.725C155.325 384.745 158.475 384.784 161.96 384.826C180.673 385.051 211.993 385.431 217.656 382.954C221.282 381.366 224.199 378.101 225.872 373.756C226.069 373.228 226.426 372.775 226.893 372.461C227.361 372.147 227.916 371.987 228.479 372.005C229.041 372.016 229.586 372.2 230.04 372.532C230.493 372.864 230.833 373.328 231.014 373.86C234.63 384.521 253.736 383.586 263.997 383.081C264.989 383.033 265.92 382.986 266.769 382.954C266.912 379.545 266.902 376.108 266.117 372.901C265.109 368.785 262.849 365.603 259.915 364.169C256.95 362.727 253.144 362.929 249.459 363.129C244.8 363.384 240.287 363.427 236.24 361.198C231.348 358.505 228.729 352.274 230.632 347.863C230.656 347.809 230.682 347.756 230.709 347.703C237.477 334.471 243.749 323.608 250.265 313.853C247.64 312.972 245.135 311.77 242.806 310.273C234.924 322.147 225.114 335.532 214.96 348.245C210.954 353.272 200.351 364.882 188.625 363.997C187.209 363.892 185.672 363.597 184.047 363.284C177.677 362.064 169.751 360.541 161.599 368.692C157.145 373.146 154.185 378.414 152.602 384.725Z" fill="#470E0E"/>
<path d="M214.348 368.72C209.861 367.189 205.612 365.367 201.36 364.439C199.245 363.981 197.14 363.741 195.144 363.968C193.177 364.188 191.287 364.86 189.623 365.931C186.098 368.198 183.089 371.576 180.567 375.193C179.314 377.012 178.198 378.921 177.227 380.905C176.29 382.858 175.54 384.968 175.29 386.75L175.264 386.94C175.184 387.523 174.88 388.052 174.418 388.416C173.956 388.78 173.371 388.951 172.785 388.893C172.2 388.835 171.659 388.552 171.278 388.104C170.897 387.656 170.704 387.077 170.74 386.49C170.913 383.577 171.789 381.203 172.768 378.878C173.761 376.592 174.967 374.404 176.37 372.343C177.757 370.267 179.327 368.32 181.061 366.524C182.821 364.664 184.818 363.043 187 361.703C189.334 360.261 191.984 359.411 194.721 359.226C197.335 359.071 199.956 359.378 202.464 360.131C204.842 360.834 207.129 361.812 209.28 363.046C211.381 364.224 213.375 365.582 215.242 367.105C215.413 367.244 215.53 367.439 215.572 367.655C215.614 367.871 215.579 368.095 215.472 368.288C215.365 368.481 215.194 368.63 214.988 368.709C214.783 368.788 214.556 368.792 214.348 368.72Z" fill="#470E0E"/>
<path d="M463.245 261.896C462.269 264.831 459.47 266.564 456.417 267.494C455.414 267.796 454.39 268.022 453.353 268.168C442.619 269.727 431.676 266.518 420.863 267.447C400.515 269.181 382.838 285.215 362.254 284.232C364.305 295.198 363.274 306.731 358.708 318.318C354.35 321.444 349.4 323.733 342.39 325.757C332.407 322.812 323.19 317.296 314.985 309.283C301.557 311.964 287.253 311.791 271.29 311.279C264.225 317.095 258.382 319.43 248.153 322.028C243.121 321.271 238.271 319.305 231.734 315.017C230.348 310.56 229.972 305.8 230.896 300.449C205.88 283.246 187.157 257.092 179.124 226.542C178.877 226.779 178.622 227.008 178.368 227.226C169.842 234.945 159.274 240.044 147.926 241.913C144.945 242.394 141.873 242.652 138.929 241.977C137.15 241.583 135.484 240.788 134.06 239.653C133.112 238.907 132.329 237.972 131.762 236.908C130.094 233.763 130.65 229.806 132.3 226.654C132.392 226.472 132.493 226.289 132.592 226.116C134.242 223.208 136.621 220.774 137.597 217.692C135.892 218.541 134.16 219.334 132.401 220.053C114.457 227.529 93.9748 228.851 75.2406 223.591C72.3567 222.779 69.4071 221.768 67.2009 219.725C64.9947 217.682 63.7082 214.374 64.8393 211.594C65.9336 208.894 68.8319 207.473 71.5027 206.324C78.8727 203.152 86.3629 200.262 94.9057 197.682C66.4991 199.259 37.636 187.034 19.0027 165.528C16.7773 162.965 14.6528 159.102 16.7597 156.439C18.5093 154.233 21.9011 154.579 24.6632 155.135C33.6354 156.958 42.6075 158.781 52.6596 158.801C29.7069 147.103 11.9195 125.679 4.63445 100.98C3.79652 98.1264 3.08515 95.0999 3.7869 92.2096C4.48866 89.3193 7.05053 86.6757 10.0146 86.8583C11.8554 86.9673 13.4688 88.0984 14.9637 89.1831C23.6426 95.4924 32.3216 101.81 41.8305 106.724C24.793 85.6118 16.6155 57.5882 19.5955 30.6445C20.262 24.654 22.8592 17.3465 28.8673 16.8322C29.6336 16.7594 30.4066 16.8136 31.1552 16.9924C35.9233 18.0947 39.0059 23.9106 40.9749 28.8485C53.1723 59.4612 70.6295 88.5069 95.2709 110.386C114.553 127.507 138.53 139.951 163.817 144.07C170.872 145.225 178.022 145.702 185.169 145.493C186.308 145.456 187.447 145.421 188.586 145.365C189.051 145.347 189.507 145.33 189.963 145.302C190.063 145.293 190.172 145.293 190.273 145.283C191.376 145.219 192.48 145.147 193.582 145.073L195.059 144.964C196.171 144.883 197.292 144.791 198.404 144.7C201.322 144.453 204.23 144.162 207.13 143.852C207.577 143.806 208.022 143.751 208.469 143.707C230.85 141.254 253.075 137.471 276.231 139.603C304.183 142.193 332.416 146.924 358.763 156.277L359.391 156.497C360.549 156.907 361.707 157.327 362.856 157.764C365.928 158.921 368.976 160.145 372 161.438C372.884 161.821 373.762 162.204 374.653 162.604C375.802 163.115 376.949 163.634 378.09 164.173C385.586 167.654 392.843 171.628 399.813 176.069C400.325 176.389 400.834 176.726 401.355 177.081C407.563 181.202 414.081 186.581 416.241 192.562C418.584 199.025 416.67 206.738 410.936 214.039C415.582 214.231 420.381 214.459 424.601 216.442C428.111 218.073 431.147 221.249 432.213 225.331C432.431 226.181 432.559 227.051 432.595 227.928C433.727 228.065 434.844 228.303 435.933 228.639C443.143 230.846 449.032 237.254 450.4 245.651C450.538 246.5 450.63 247.356 450.674 248.215C453.973 249.28 457.365 250.402 459.999 252.654C461.119 253.611 462.031 254.786 462.679 256.109C463.573 257.93 463.883 259.981 463.245 261.896Z" fill="#994E31"/>
<g opacity="0.3">
<path d="M462.68 255.95C434.839 252.094 406.623 250.354 379.456 256.854C370.668 258.959 362.007 261.921 352.992 262.588C343.976 263.254 334.246 261.256 327.913 254.801C318.587 245.284 319.626 230.06 321.294 216.851C319.362 220.569 317.364 224.354 315.259 228.09C314.594 228.784 313.937 230.041 313.344 231.437C311.22 235.074 308.986 238.647 306.599 242.066C298.909 248.955 289.632 254.082 279.623 256.716L285.531 244.19C280.145 248.128 274.418 251.579 268.419 254.5C266.267 243.736 264.119 232.97 261.974 222.202C275.931 221.129 289.7 218.314 302.959 213.824C326.511 205.884 348.368 192.864 366.482 175.835C370.346 172.216 374.786 168.324 378.096 164.021C376.955 163.482 375.807 162.963 374.66 162.452C373.775 162.051 372.897 161.669 372.006 161.286C368.988 159.991 365.94 158.766 362.863 157.612C361.714 157.174 360.556 156.755 359.397 156.345L358.769 156.125C354.764 154.747 337.39 171.008 337.39 171.008C331.816 176.223 322.759 182.031 307.476 184.588C284.6 193.147 259.664 194.555 235.971 188.627C219.165 184.956 212.276 178.073 209.072 172.554C203.639 163.186 201.139 144.484 198.4 144.548C198.254 144.548 197.57 144.626 195.054 144.812L193.577 144.921C192.475 144.995 191.371 145.068 190.269 145.131C190.168 145.141 190.059 145.141 189.958 145.15C189.503 145.177 189.046 145.195 188.582 145.214C187.269 149.516 186.886 154.202 186.558 158.724C186.494 159.554 186.439 160.384 186.375 161.214C182.602 168.124 179.486 175.444 177.442 183.11C177.869 180.037 178.413 176.986 179.074 173.957C179.757 170.849 180.558 167.765 181.478 164.705C175.71 172.134 167.976 178.041 159.151 181.305C152.505 183.767 144.958 184.761 138.421 182.035C131.884 179.31 126.952 172.035 128.612 165.152C122.002 166.081 114.983 166.948 108.875 164.267C102.768 161.587 98.336 153.892 101.555 148.039C95.0453 151.536 87.9786 153.877 80.6689 154.959C77.5318 155.423 73.4479 155.104 72.4369 152.097C71.6711 149.835 73.3982 147.337 75.5996 146.398C77.801 145.459 85.0075 142.898 87.3868 143.117C67.2298 130.62 53.9815 113.006 45.8104 92.8216C37.6393 72.6374 32.9193 51.2597 28.2346 29.9908C27.222 25.3974 26.8391 19.4437 30.1668 16.6719C29.7328 16.6367 29.2966 16.6367 28.8626 16.6719C22.8545 17.1927 20.2574 24.4938 19.5909 30.4843C16.6108 57.4312 24.7883 85.4564 41.8178 106.56C40.3758 105.812 38.9451 105.029 37.5416 104.218C40.0495 106.14 42.6264 107.956 45.2721 109.665C39.3921 113.494 31.4517 113.304 25.152 110.231C18.8523 107.158 14.0489 101.534 10.7949 95.3082C9.45806 92.727 8.30328 90.0556 7.33904 87.3133C5.59748 88.225 4.24845 90.0835 3.77421 92.0526C3.07246 94.9365 3.78382 97.9694 4.62176 100.823C11.9148 125.528 29.7022 146.953 52.6565 158.648C42.6061 158.624 33.6339 156.801 24.6617 154.973C21.8996 154.416 18.5078 154.069 16.7582 156.276C14.6514 158.938 16.7758 162.795 19.0013 165.365C37.6345 186.871 66.4977 199.095 94.9042 197.519C86.3614 200.098 78.8824 202.989 71.5012 206.161C68.8304 207.31 65.9321 208.732 64.8378 211.43C63.7067 214.21 64.998 217.519 67.1994 219.561C69.4008 221.604 72.3504 222.615 75.2391 223.427C95.8062 229.195 118.479 227.047 137.596 217.528C136.556 220.802 133.949 223.336 132.299 226.491C130.649 229.645 130.093 233.601 131.761 236.745C133.174 239.416 135.982 241.14 138.927 241.814C141.872 242.489 144.943 242.232 147.925 241.75C159.272 239.881 169.841 234.782 178.366 227.063C178.357 226.408 178.32 225.741 178.284 225.076C178.912 227.018 179.614 228.968 180.417 230.929C189.045 259.524 207.13 283.948 230.897 300.29C229.966 305.641 230.349 310.401 231.735 314.859C238.271 319.143 243.121 321.107 248.154 321.87C258.382 319.271 264.225 316.937 271.291 311.121C287.253 311.632 301.557 311.805 314.985 309.124C323.19 317.135 332.407 322.653 342.39 325.598C349.4 323.574 354.35 321.287 358.708 318.159C363.274 306.572 364.305 295.04 362.254 284.073C382.839 285.057 400.515 269.022 420.863 267.29C431.676 266.359 442.616 269.568 453.353 268.01C457.429 267.417 461.941 265.64 463.245 261.737C463.883 259.824 463.574 257.773 462.68 255.95ZM40.0426 131.029C38.9211 129.47 37.8732 127.328 38.9483 125.732C39.65 124.684 41.0728 124.319 42.3129 124.511C43.5529 124.703 44.6825 125.359 45.7671 125.996C52.9417 130.236 59.9896 134.912 67.6192 138.267C69.5979 139.132 72.2414 139.752 71.5301 142.273C70.7018 145.208 64.5847 147.669 61.8946 147.486C60.1723 147.377 58.5669 146.639 57.0448 145.836C50.3079 142.282 44.4878 137.214 40.0426 131.029ZM82.8446 175.553C74.3531 179.026 64.7753 179.879 55.824 177.786C44.0352 175.024 33.5153 167.183 27.5072 156.673C37.6906 157.375 47.9829 158.459 57.5832 161.951C61.7488 163.465 65.7543 165.416 69.9359 166.864C72.5487 167.767 75.2268 168.468 77.9468 168.962C80.0889 169.354 83.5352 168.952 85.4401 169.801C89.9839 171.806 85.4898 174.468 82.8462 175.553H82.8446ZM95.2342 181.801C95.7437 179.796 96.737 177.945 97.7128 176.122C102.125 180.262 107.066 181.866 112.756 183.352C115.226 183.993 116.256 184.017 115.718 187.117C115.335 189.295 113.675 191.328 111.753 192.341C108.625 193.964 104.796 193.608 101.478 192.395C99.1083 191.53 96.7643 190.134 95.6348 187.874C94.7055 186.028 94.7151 183.812 95.2358 181.806L95.2342 181.801ZM121.161 210.145C119.994 212.451 117.878 214.511 115.873 216.098C111.897 219.233 107.062 221.086 102.008 221.412C93.2107 221.95 84.4949 217.995 78.224 211.799C91.3758 213.113 104.657 211.963 117.387 208.407C120.342 207.588 123.203 206.121 121.162 210.15L121.161 210.145ZM151.791 206.589C148.819 207.619 145.446 207.656 142.583 206.361C140.488 205.4 136.404 202.035 137.323 199.397C144.789 202.03 151.554 203.772 159.422 201.21C157.354 203.586 154.758 205.555 151.793 206.593L151.791 206.589ZM205.898 225.888C204.968 227.894 203.961 229.858 202.879 231.778C202.251 232.89 199.388 236.163 199.388 237.357C199.051 232.143 198.711 226.92 198.368 221.686C196.288 223.395 194.209 225.112 192.132 226.837C190.471 218.893 189.553 210.811 189.387 202.697C192.989 205.788 196.927 208.176 201.103 210.387C203.719 211.773 206.71 213.214 207.784 216.205C208.953 219.467 207.239 222.968 205.899 225.893L205.898 225.888ZM282.201 288.492C279.047 290.533 275.447 292.092 271.681 292.156C267.296 292.228 262.291 289.821 261.152 285.255C259.63 279.183 264.406 279.808 268.628 280.241C278.782 281.28 289.039 278.59 296.296 271.06C293.565 278.219 288.63 284.325 282.203 288.496L282.201 288.492ZM354.586 305.154C354.249 308.436 353.744 311.698 353.072 314.928C346.607 314.382 340.369 312.287 334.886 308.82C335.687 309.331 342.256 303.943 343.118 303.269C345.487 301.445 347.749 299.484 349.89 297.397C351.184 296.139 354.065 291.781 355.041 295.447C355.781 298.231 354.879 302.334 354.587 305.161L354.586 305.154Z" fill="#470E0E"/>
</g>
<g opacity="0.45">
<path d="M463.245 261.896C462.269 264.831 459.47 266.564 456.416 267.494C456.482 266.593 456.424 265.688 456.243 264.804C455.223 259.872 451.02 256.07 446.353 254.165C441.686 252.26 436.543 251.922 431.51 251.602C418.3 250.781 405.087 249.958 391.873 249.131C406.793 243.223 423.053 241.539 438.868 244.264C436.322 235.999 430.614 229.075 422.986 225.001C415.359 220.926 406.43 220.031 398.145 222.511C406.541 216.203 407.717 203.394 403.323 193.859C398.93 184.325 390.277 177.496 381.452 171.796C376.192 168.386 370.742 165.241 365.636 161.604C363.266 159.917 360.138 158.094 358.762 156.288L359.39 156.508C360.549 156.918 361.707 157.338 362.856 157.775C365.928 158.932 368.976 160.157 371.999 161.449C372.884 161.832 373.762 162.215 374.653 162.615C383.364 166.462 391.772 170.961 399.807 176.074C400.318 176.394 400.827 176.731 401.348 177.086C407.556 181.207 414.074 186.586 416.234 192.566C418.578 199.03 416.663 206.742 410.929 214.044C415.575 214.236 420.374 214.463 424.594 216.447C428.104 218.078 431.14 221.253 432.206 225.336C432.424 226.186 432.552 227.056 432.589 227.933C433.72 228.07 434.837 228.308 435.926 228.644C443.136 230.85 449.025 237.259 450.394 245.656C450.531 246.505 450.623 247.361 450.668 248.22C453.966 249.285 457.358 250.406 459.992 252.659C461.112 253.615 462.024 254.791 462.673 256.113C463.573 257.93 463.882 259.981 463.245 261.896Z" fill="white"/>
</g>
<g opacity="0.45">
<path d="M198.404 144.705C173.043 155.425 143.004 153.156 118.017 141.377C91.7409 128.987 70.8021 106.93 56.2624 81.7762C49.6711 70.3703 44.2926 58.2916 39.853 45.902C36.4516 36.4219 33.6045 26.7576 31.1548 16.986C35.9228 18.0883 39.0054 23.9041 40.9745 28.842C53.1718 59.4547 70.6291 88.5005 95.2705 110.38C114.553 127.501 138.529 139.945 163.816 144.064C170.872 145.219 178.022 145.695 185.168 145.487C186.771 145.442 188.368 145.378 189.962 145.296C190.063 145.286 190.172 145.286 190.273 145.277C191.375 145.213 192.479 145.141 193.581 145.067L195.059 144.958C196.171 144.887 197.292 144.796 198.404 144.705Z" fill="white"/>
</g>
<g opacity="0.3">
<path d="M432.212 225.331C423.745 226.851 415.467 229.288 407.526 232.597C400.078 235.705 392.903 239.589 385.136 241.785C377.368 243.982 368.662 244.338 361.534 240.545C372.91 236.444 383.695 230.153 391.69 221.082C399.685 212.01 404.668 199.959 403.833 187.89C403.572 184.182 402.735 180.537 401.355 177.086C407.563 181.207 414.081 186.586 416.24 192.566C418.584 199.03 416.67 206.743 410.936 214.044C415.582 214.236 420.38 214.463 424.6 216.447C428.111 218.073 431.147 221.245 432.212 225.331Z" fill="#470E0E"/>
</g>
<path d="M342.39 328.488C342.128 328.489 341.867 328.451 341.616 328.376C331.59 325.419 322.343 319.99 314.113 312.233C300.996 314.655 287.33 314.514 272.221 314.042C264.93 319.845 258.532 322.213 248.829 324.675C248.477 324.765 248.109 324.784 247.749 324.73C242.129 323.884 236.892 321.663 230.238 317.302C229.707 316.954 229.314 316.432 229.126 315.826C227.706 311.259 227.315 306.627 227.942 301.718C203.855 284.683 186.149 259.909 177.662 231.446C169.201 238.294 159.108 242.829 148.37 244.61C145.593 245.06 141.942 245.469 138.323 244.639C134.303 243.719 131.033 241.365 129.351 238.183C127.407 234.519 127.606 229.732 129.881 225.381C130.211 224.752 130.563 224.16 130.93 223.586C113.037 230.386 92.9139 231.397 74.5034 226.222C71.299 225.321 67.9617 224.153 65.3438 221.736C62.604 219.199 60.6013 214.761 62.2996 210.567C63.7784 206.922 67.2664 205.171 70.4178 203.815C73.6654 202.418 76.7737 201.148 79.8066 199.981C55.8365 197.322 32.6867 185.507 16.9309 167.323C12.9159 162.676 12.0491 157.982 14.6094 154.746C17.6343 150.934 23.1281 152.041 25.1981 152.458C30.6615 153.568 35.9407 154.641 41.4089 155.326C22.7452 142.678 8.3657 123.324 1.99546 101.752C1.03416 98.5029 0.273127 95.023 1.11427 91.5623C2.04032 87.7459 5.52025 83.843 10.1665 84.1266C12.8598 84.2868 14.9955 85.8361 16.5544 86.9688L16.6714 87.0537C21.7374 90.7387 26.9076 94.4942 32.2445 97.9485C19.8196 77.9214 14.2633 53.9096 16.8636 30.3449C17.9323 20.7222 22.327 14.6532 28.6172 14.11C37.7303 13.3362 42.0754 24.2566 43.4997 27.8455C56.9756 61.6657 75 88.7521 97.0732 108.35C122.754 131.154 154.828 143.7 185.069 142.769C187.716 142.692 190.435 142.556 193.381 142.354C197.773 142.056 202.467 141.625 208.155 140.997C212.237 140.55 216.387 140.05 220.4 139.565C238.521 137.38 257.26 135.121 276.476 136.889C310.933 140.074 339.5 146.068 363.812 155.213C367.017 156.421 370.133 157.673 373.071 158.934C382.862 163.104 392.296 168.068 401.279 173.775C410.964 179.961 416.699 185.805 418.807 191.642C421.04 197.804 420.012 204.757 415.936 211.597C419.206 211.887 422.587 212.485 425.756 213.97C430.678 216.267 434.097 220.595 435.059 225.581C444.673 227.689 451.962 235.923 453.235 246.18C456.118 247.154 459.193 248.375 461.769 250.578C464.922 253.273 467.401 258.087 465.832 262.77C464.39 267.075 460.098 269.955 453.741 270.879C447.675 271.76 441.608 271.199 435.739 270.668C430.666 270.205 425.877 269.767 421.092 270.177C412.209 270.933 403.908 274.53 395.119 278.339C385.682 282.429 375.954 286.643 365.458 286.99C366.887 297.738 365.474 308.597 361.244 319.326C361.052 319.815 360.723 320.238 360.296 320.545C355.632 323.89 350.341 326.313 343.141 328.395C342.896 328.461 342.643 328.493 342.39 328.488ZM314.993 306.539C315.707 306.538 316.393 306.817 316.902 307.317C324.538 314.775 333.116 320.013 342.407 322.894C348.249 321.149 352.645 319.165 356.463 316.546C360.494 305.952 361.541 295.251 359.572 284.725C359.495 284.319 359.512 283.901 359.62 283.503C359.729 283.104 359.926 282.735 360.197 282.424C360.469 282.113 360.807 281.867 361.187 281.705C361.567 281.544 361.979 281.47 362.391 281.49C372.91 282 382.648 277.773 392.956 273.306C401.768 269.49 410.868 265.544 420.638 264.714C425.903 264.259 431.163 264.741 436.25 265.207C442.056 265.738 447.542 266.239 452.967 265.452C454.93 265.167 459.606 264.171 460.657 261.019C461.412 258.765 459.927 256.176 458.227 254.723C455.961 252.786 452.848 251.779 449.838 250.807C449.31 250.637 448.846 250.309 448.508 249.869C448.17 249.428 447.975 248.896 447.947 248.341C447.486 239.116 440.898 231.679 432.275 230.636C431.631 230.558 431.036 230.254 430.596 229.778C430.156 229.302 429.899 228.685 429.872 228.037C429.675 223.424 426.425 220.3 423.452 218.913C419.653 217.133 415.169 216.947 410.831 216.769C410.328 216.748 409.841 216.588 409.423 216.308C409.005 216.028 408.672 215.638 408.461 215.181C408.25 214.724 408.169 214.217 408.228 213.717C408.286 213.217 408.481 212.743 408.792 212.347C413.964 205.762 415.699 199.065 413.677 193.489C412.017 188.893 406.86 183.807 398.349 178.371C389.617 172.826 380.448 168.004 370.931 163.952C368.065 162.723 365.027 161.502 361.899 160.323C338.053 151.351 309.951 145.466 275.988 142.327C257.356 140.61 238.914 142.835 221.078 144.987C217.049 145.467 212.885 145.975 208.775 146.429C203.007 147.07 198.244 147.502 193.776 147.807C190.757 148.012 187.971 148.151 185.255 148.23C153.635 149.191 120.178 136.154 93.4635 112.434C70.7383 92.2656 52.2268 64.4856 38.4401 29.8658C35.5962 22.7394 32.4832 19.269 29.1058 19.5542C24.993 19.9099 22.8798 25.9116 22.3206 30.9425C19.3999 57.3463 27.2874 84.3397 43.9499 105C44.3464 105.488 44.5626 106.098 44.5621 106.726C44.5615 107.355 44.3443 107.965 43.947 108.452C43.5497 108.939 42.9966 109.275 42.3808 109.402C41.765 109.53 41.1242 109.441 40.5662 109.151C30.9163 104.163 22.0434 97.7146 13.4638 91.4789L13.3469 91.394C12.2798 90.6186 10.9436 89.6525 9.8429 89.5868C8.33206 89.5003 6.83883 91.1986 6.43668 92.8536C5.87432 95.1704 6.56166 97.8636 7.25059 100.208C14.3001 124.08 31.7382 145.068 53.9026 156.367C54.45 156.646 54.8876 157.101 55.1448 157.659C55.4021 158.217 55.4639 158.845 55.3205 159.442C55.1771 160.04 54.8367 160.571 54.3543 160.952C53.8718 161.332 53.2753 161.539 52.661 161.539C42.3334 161.52 33.076 159.639 24.1247 157.819C21.2904 157.248 19.5328 157.355 18.908 158.139C18.0316 159.249 19.4159 161.824 21.0773 163.747C39.0809 184.512 67.2984 196.469 94.7548 194.949C95.4235 194.911 96.0828 195.12 96.6078 195.536C97.1327 195.951 97.4869 196.545 97.603 197.205C97.7192 197.865 97.5893 198.544 97.2379 199.114C96.8866 199.684 96.3383 200.106 95.6969 200.298C88.109 202.59 80.9826 205.222 72.5856 208.835C70.4307 209.767 68.0803 210.889 67.3753 212.619C66.688 214.308 67.6957 216.464 69.0592 217.716C70.7287 219.26 73.0342 220.129 75.9822 220.955C95.8635 226.534 117.879 224.453 136.384 215.242C136.865 215.003 137.406 214.911 137.939 214.977C138.471 215.044 138.973 215.265 139.381 215.614C139.789 215.964 140.085 216.425 140.232 216.942C140.38 217.458 140.372 218.006 140.21 218.518C139.46 220.88 138.127 222.793 136.826 224.644C136.046 225.765 135.309 226.813 134.731 227.92C133.609 230.046 132.891 233.186 134.184 235.626C135.112 237.378 137.115 238.754 139.545 239.311C142.242 239.93 145.21 239.584 147.495 239.214C158.644 237.367 168.998 232.265 177.256 224.551C177.601 224.226 178.025 223.997 178.485 223.885C178.946 223.774 179.427 223.784 179.883 223.914C180.339 224.045 180.752 224.292 181.084 224.631C181.415 224.969 181.653 225.388 181.774 225.847C189.535 255.365 207.532 281.061 232.45 298.196C232.882 298.493 233.219 298.907 233.422 299.39C233.625 299.873 233.685 300.404 233.596 300.92C232.841 305.263 232.998 309.317 234.077 313.276C239.407 316.679 243.656 318.494 248.028 319.239C257.18 316.887 262.812 314.721 269.553 309.169C270.067 308.749 270.716 308.528 271.38 308.548C287.092 309.049 301.18 309.251 314.451 306.603C314.627 306.567 314.807 306.549 314.986 306.548L314.993 306.539Z" fill="#470E0E"/>
<path d="M46.9314 116.942C48.9313 119.695 51.1535 122.279 53.5756 124.668C54.7741 125.866 56.0318 127.004 57.2831 128.143C58.5344 129.282 59.8658 130.338 61.1667 131.424C62.4677 132.511 63.8231 133.533 65.1866 134.544C66.55 135.555 67.9103 136.571 69.3026 137.538C72.0839 139.45 74.9486 141.393 77.7845 143.037C78.2966 143.334 78.7031 143.784 78.9473 144.323C79.1916 144.862 79.2613 145.464 79.1468 146.045C79.0323 146.626 78.7392 147.157 78.3086 147.563C77.878 147.969 77.3312 148.231 76.7447 148.311H76.6838C73.9216 148.675 71.2684 149.13 68.8812 149.955C67.7198 150.344 66.6024 150.854 65.5471 151.476C64.5676 152.066 63.6779 152.794 62.9051 153.637C61.3846 155.329 60.4394 157.482 60.5018 159.445C60.5419 161.367 61.6907 163.314 63.4995 164.761C65.2763 166.182 67.6844 167.063 70.2719 167.624C71.5648 167.906 72.9491 168.125 74.311 168.316C75.6728 168.507 77.0475 168.648 78.4237 168.736C83.9432 169.087 89.4848 168.764 94.9261 167.774C95.5003 167.671 96.0926 167.771 96.6006 168.058C97.1087 168.345 97.5003 168.8 97.7076 169.346C97.915 169.891 97.925 170.492 97.7359 171.044C97.5469 171.596 97.1706 172.064 96.6725 172.368H96.6613C94.5389 173.65 92.7602 175.43 91.4783 177.553C90.2221 179.635 89.6293 182.016 89.8504 184.312C90.0715 186.608 91.0809 188.92 92.6158 190.843C94.1706 192.788 96.1769 194.325 98.4605 195.319C103.107 197.375 108.649 197.455 113.893 196.34C119.18 195.242 124.222 192.897 129.084 190.091C129.532 189.833 130.048 189.721 130.562 189.768C131.076 189.816 131.563 190.022 131.955 190.358C132.347 190.695 132.625 191.144 132.752 191.645C132.878 192.145 132.845 192.673 132.659 193.154C131.028 197.375 130.693 202.16 132.33 206.041C133.125 207.967 134.392 209.661 136.015 210.967C137.598 212.216 139.447 212.916 141.578 213.13C143.691 213.379 145.991 213.158 148.336 212.787C149.512 212.584 150.72 212.387 151.909 212.159C153.098 211.932 154.283 211.65 155.472 211.382C157.835 210.799 160.199 210.158 162.522 209.381C163.687 208.995 164.84 208.566 166.005 208.152C167.17 207.739 168.307 207.252 169.47 206.8L169.499 206.789C169.776 206.682 170.082 206.68 170.36 206.783C170.639 206.887 170.869 207.088 171.009 207.35C171.148 207.612 171.187 207.916 171.118 208.205C171.049 208.493 170.877 208.746 170.634 208.917C168.518 210.404 166.292 211.727 163.973 212.872C159.315 215.228 154.361 216.946 149.245 217.98C146.641 218.461 143.874 218.781 140.973 218.461C139.49 218.3 138.035 217.941 136.647 217.395C135.226 216.832 133.898 216.057 132.709 215.098C130.415 213.2 128.644 210.749 127.562 207.976C126.516 205.28 126.06 202.39 126.226 199.502C126.383 196.714 126.978 193.967 127.989 191.363L131.569 194.423C126.471 197.359 120.937 199.972 114.907 201.228C111.876 201.886 108.773 202.148 105.675 202.006C102.552 201.846 99.3802 201.205 96.4177 199.885C93.3975 198.566 90.7437 196.531 88.6857 193.957C86.6397 191.394 85.1785 188.218 84.8565 184.782C84.5344 181.345 85.4477 177.849 87.1572 175.008C88.8599 172.172 91.2306 169.796 94.0626 168.087L95.7993 172.687C89.9567 173.751 84.0062 174.1 78.0793 173.725C75.1003 173.543 72.1358 173.173 69.2032 172.618C66.2136 172.006 63.0365 171.016 60.2679 168.893C58.8539 167.836 57.6489 166.525 56.7143 165.027C55.7273 163.428 55.1434 161.614 55.0128 159.74C54.9185 157.901 55.2178 156.063 55.8908 154.35C56.5521 152.724 57.4766 151.219 58.6273 149.894C59.7568 148.589 61.0808 147.466 62.5526 146.565C63.9585 145.716 65.4498 145.018 67.0019 144.482C70.046 143.452 73.0901 142.994 75.9981 142.66L74.8974 147.948C73.3144 146.964 71.8837 145.993 70.4113 144.971C68.9389 143.949 67.5402 142.888 66.1479 141.8C64.7556 140.712 63.3777 139.592 62.0415 138.435C60.7053 137.279 59.4076 136.061 58.1354 134.823C55.582 132.339 53.2251 129.66 51.0859 126.812C48.9662 123.95 47.0933 120.868 45.7987 117.553C45.7314 117.405 45.7223 117.238 45.7734 117.084C45.8245 116.931 45.9319 116.802 46.074 116.724C46.2161 116.646 46.3824 116.625 46.5394 116.665C46.6964 116.705 46.8325 116.803 46.9202 116.939L46.9314 116.942Z" fill="#470E0E"/>
<path d="M101.864 150.094C98.4992 152.703 96.0479 156.418 95.9101 160.265C95.8188 162.176 96.2578 164.049 97.2367 165.523C98.1868 167.036 99.6752 168.18 101.417 169.007C104.927 170.665 109.234 171.009 113.417 170.873C117.605 170.713 121.748 169.809 125.791 168.425H125.8C126.238 168.282 126.709 168.274 127.152 168.401C127.595 168.528 127.99 168.784 128.286 169.138C128.581 169.491 128.765 169.925 128.812 170.383C128.859 170.841 128.769 171.303 128.551 171.709C128.009 172.702 127.534 173.731 127.13 174.787C126.747 175.825 126.449 176.893 126.241 177.98C125.834 180.134 125.89 182.29 126.505 184.285C126.794 185.283 127.225 186.235 127.787 187.109C128.322 187.971 128.996 188.739 129.782 189.381C131.313 190.634 133.375 191.368 135.641 191.672C137.906 191.977 140.358 191.948 142.756 191.789C145.173 191.616 147.575 191.273 149.943 190.761C154.729 189.684 159.331 187.911 163.602 185.498C163.762 185.409 163.951 185.384 164.129 185.428C164.307 185.473 164.461 185.584 164.561 185.738C164.66 185.893 164.697 186.079 164.664 186.26C164.63 186.44 164.53 186.601 164.382 186.711C158.094 191.244 150.786 194.161 143.104 195.202C140.526 195.522 137.958 195.74 135.227 195.545C132.539 195.341 129.593 194.643 127.141 192.807C124.706 191.014 123.012 188.433 122.109 185.674C121.649 184.29 121.385 182.847 121.325 181.39C121.261 179.964 121.357 178.535 121.612 177.131C122.133 174.403 123.143 171.792 124.594 169.423L127.354 172.703H127.345C123.009 174.398 118.32 175.482 113.566 175.611C111.186 175.692 108.803 175.543 106.451 175.165C104.067 174.768 101.68 174.089 99.4285 172.893C98.2787 172.294 97.2082 171.553 96.2418 170.689C95.2555 169.783 94.4199 168.727 93.7664 167.558C92.4062 165.205 92.0681 162.431 92.395 159.922C92.7526 157.422 93.7715 155.063 95.3462 153.089C96.849 151.219 98.7096 149.668 100.819 148.526C101.027 148.411 101.27 148.379 101.5 148.436C101.73 148.493 101.93 148.635 102.059 148.833C102.189 149.032 102.239 149.272 102.199 149.505C102.159 149.739 102.033 149.949 101.845 150.093L101.864 150.094Z" fill="#470E0E"/>
<path d="M360.334 194.135C354.626 196.719 349.069 199.602 343.846 202.979C338.614 206.284 333.737 210.119 329.291 214.423C324.888 218.668 321.063 223.473 317.915 228.716C317.503 229.357 317.149 230.025 316.794 230.696L315.728 232.704C315.083 234.024 314.521 235.383 314.046 236.774C313.574 238.156 313.193 239.567 312.905 240.998C312.637 242.428 312.456 243.873 312.362 245.324C311.979 251.11 313.296 257.039 315.898 262.229C318.461 267.434 322.603 271.618 327.627 274.55C332.652 277.482 338.522 279.167 344.51 280.148C350.519 281.171 356.707 281.429 362.978 281.59C363.68 281.611 364.346 281.906 364.834 282.412C365.321 282.918 365.591 283.594 365.586 284.297C365.582 284.999 365.302 285.672 364.808 286.171C364.313 286.67 363.643 286.956 362.941 286.968H362.931C356.569 287.035 350.085 286.817 343.6 285.859C337.14 284.852 330.609 283.03 324.683 279.611C321.691 277.903 318.967 275.763 316.598 273.261C314.232 270.745 312.265 267.881 310.765 264.77C309.273 261.705 308.179 258.462 307.511 255.12C306.836 251.77 306.623 248.343 306.878 244.935C307.134 241.532 307.88 238.184 309.092 234.994C309.682 233.408 310.373 231.862 311.16 230.365L312.376 228.216C312.777 227.499 313.178 226.774 313.647 226.105L314.99 224.039C315.43 223.347 315.951 222.711 316.432 222.045C316.912 221.378 317.385 220.712 317.91 220.085L319.476 218.198C319.985 217.557 320.538 216.958 321.095 216.362L322.755 214.566C323.329 213.989 323.925 213.433 324.508 212.868C325.091 212.302 325.671 211.73 326.294 211.209C331.135 206.922 336.404 203.145 342.018 199.938C347.607 196.802 353.445 194.135 359.474 191.962C359.757 191.864 360.066 191.878 360.339 192.002C360.612 192.125 360.826 192.349 360.939 192.626C361.052 192.903 361.054 193.213 360.944 193.492C360.835 193.771 360.623 193.997 360.352 194.124L360.334 194.135Z" fill="#470E0E"/>
<path d="M413.266 215.675C409.798 218.986 406.163 222.141 402.362 225.14C398.55 228.127 394.556 230.953 390.329 233.419C386.124 235.898 381.722 238.026 377.166 239.781C372.654 241.523 368.013 242.911 363.285 243.934C363.051 243.984 362.806 243.948 362.597 243.832C362.387 243.716 362.227 243.527 362.145 243.302C362.064 243.077 362.067 242.829 362.154 242.606C362.241 242.383 362.406 242.199 362.618 242.088C366.861 239.863 371.121 237.813 375.256 235.596C379.391 233.379 383.437 231.11 387.332 228.578C391.227 226.047 394.965 223.291 398.661 220.407C402.357 217.523 406.008 214.539 409.745 211.613C410.288 211.191 410.973 210.994 411.658 211.062C412.343 211.13 412.976 211.458 413.426 211.979C413.877 212.499 414.11 213.173 414.078 213.86C414.047 214.548 413.753 215.197 413.257 215.675H413.266Z" fill="#470E0E"/>
<path d="M450.711 250.974C445.02 249.292 439.196 248.096 433.303 247.396C427.393 246.699 421.437 246.463 415.49 246.691C409.512 246.93 403.558 247.581 397.669 248.639C391.73 249.711 385.858 251.127 380.082 252.879C379.79 252.967 379.475 252.943 379.2 252.809C378.925 252.676 378.71 252.444 378.598 252.16C378.486 251.876 378.485 251.56 378.596 251.275C378.707 250.99 378.92 250.757 379.195 250.623C384.794 247.891 390.654 245.728 396.686 244.166C402.747 242.584 408.943 241.57 415.192 241.138C421.469 240.685 427.775 240.849 434.02 241.628C440.288 242.394 446.446 243.887 452.369 246.076C453 246.308 453.516 246.776 453.807 247.382C454.098 247.987 454.142 248.683 453.93 249.32C453.717 249.958 453.265 250.488 452.669 250.798C452.072 251.107 451.379 251.173 450.735 250.98L450.711 250.974Z" fill="#470E0E"/>
<path d="M387.233 234.641C386.59 234.641 385.968 234.415 385.475 234.001C384.983 233.588 384.651 233.014 384.54 232.381C384.428 231.748 384.543 231.096 384.864 230.539C385.186 229.982 385.693 229.556 386.297 229.336C401.098 223.943 418.126 222.545 434.239 225.393C434.953 225.52 435.588 225.924 436.004 226.519C436.42 227.113 436.583 227.848 436.457 228.562C436.33 229.277 435.926 229.912 435.331 230.328C434.737 230.743 434.002 230.906 433.287 230.78C418.104 228.095 402.08 229.407 388.169 234.476C387.869 234.585 387.552 234.641 387.233 234.641Z" fill="#470E0E"/>
<path d="M180.415 233.827C179.803 233.826 179.21 233.621 178.729 233.243C178.248 232.866 177.908 232.338 177.762 231.744C170.614 202.692 176.398 169.22 192.502 146.47C193.075 145.645 193.692 144.807 194.323 143.993C194.544 143.709 194.818 143.471 195.13 143.293C195.442 143.115 195.786 143 196.143 142.955C196.5 142.91 196.862 142.936 197.208 143.031C197.555 143.125 197.88 143.288 198.164 143.508C198.448 143.728 198.686 144.002 198.864 144.315C199.042 144.627 199.157 144.971 199.202 145.328C199.247 145.684 199.221 146.046 199.126 146.393C199.032 146.74 198.869 147.064 198.649 147.348C198.076 148.087 197.516 148.848 196.984 149.614C181.983 170.809 176.4 203.287 183.081 230.439C183.179 230.841 183.185 231.261 183.098 231.667C183.01 232.072 182.832 232.453 182.576 232.779C182.32 233.105 181.993 233.369 181.62 233.551C181.247 233.732 180.838 233.827 180.423 233.827H180.415Z" fill="#470E0E"/>
<path d="M231.95 297.946C235.801 299.996 239.822 301.711 243.967 303.073C248.107 304.417 252.375 305.335 256.715 305.997C265.407 307.295 274.408 307.399 283.55 308.003C287.989 308.303 292.424 308.41 296.848 308.279C301.269 308.175 305.68 307.816 310.059 307.202C318.815 305.92 327.263 303.616 335.792 300.852C336.118 300.748 336.471 300.764 336.786 300.899C337.101 301.033 337.356 301.277 337.506 301.585C337.656 301.893 337.69 302.244 337.601 302.575C337.512 302.906 337.308 303.194 337.024 303.386C333.156 305.991 328.878 307.947 324.473 309.474C320.067 311.001 315.489 311.992 310.902 312.744C306.316 313.476 301.69 313.94 297.05 314.134C292.419 314.317 287.781 314.248 283.173 313.982C274.235 313.442 265.051 313.37 255.805 311.899C246.573 310.478 237.423 307.396 229.328 302.647C228.717 302.295 228.269 301.718 228.081 301.039C227.892 300.361 227.978 299.635 228.32 299.019C228.662 298.403 229.232 297.946 229.907 297.747C230.583 297.548 231.31 297.622 231.931 297.954L231.95 297.946Z" fill="#470E0E"/>
<path d="M374.653 162.609C354.916 179.592 301.238 219.076 239.269 208.2C181.271 198.017 183.733 164.333 190.278 145.288C191.38 145.224 192.484 145.152 193.586 145.078C194.562 145.016 195.528 144.942 196.496 144.86C200.051 144.586 203.597 144.24 207.134 143.857C201.947 159.128 201.235 183.271 243.637 190.743C297.76 200.287 346.16 166.73 359.395 156.502C360.554 156.912 361.712 157.332 362.861 157.769C362.896 157.779 362.925 157.796 362.96 157.806C366.004 158.955 369.023 160.166 372.004 161.443C372.884 161.826 373.775 162.209 374.653 162.609Z" fill="#39A1FF"/>
<g opacity="0.4">
<path d="M362.955 157.806C348.707 173.047 304.578 206.96 238.159 196.376C202.531 190.7 193.423 164.173 200.046 144.586C203.601 144.312 203.592 144.24 207.129 143.857C201.942 159.128 201.23 183.271 243.632 190.743C297.755 200.287 346.155 166.73 359.39 156.502C360.549 156.912 361.707 157.332 362.856 157.769C362.891 157.779 362.92 157.796 362.955 157.806Z" fill="white"/>
</g>
<path d="M260.852 212.811C253.457 212.812 246.075 212.169 238.792 210.889C214.099 206.553 197.545 197.52 189.594 184.041C181.482 170.29 184.079 154.891 187.687 144.394C187.864 143.881 188.189 143.432 188.621 143.104C189.053 142.776 189.573 142.585 190.114 142.553C191.167 142.492 192.218 142.423 193.271 142.354L193.402 142.345C197.424 142.069 201.695 141.685 206.838 141.134C207.295 141.084 207.757 141.15 208.182 141.326C208.606 141.502 208.98 141.783 209.267 142.141C209.555 142.5 209.747 142.926 209.827 143.378C209.906 143.831 209.87 144.297 209.722 144.732C207.367 151.666 205.63 161.741 210.733 170.367C215.906 179.108 227.136 185.057 244.109 188.05C296.981 197.373 344.437 164.604 357.723 154.337C358.084 154.057 358.51 153.872 358.962 153.8C359.413 153.727 359.876 153.77 360.307 153.924C361.486 154.342 362.664 154.768 363.832 155.205C367.025 156.409 370.141 157.66 373.079 158.921C374.018 159.328 374.901 159.711 375.784 160.111C376.202 160.301 376.566 160.593 376.841 160.961C377.117 161.328 377.295 161.759 377.36 162.214C377.426 162.668 377.375 163.132 377.214 163.562C377.053 163.992 376.786 164.375 376.437 164.674C358.445 180.164 314.161 212.811 260.852 212.811ZM192.292 147.911C189.376 157.221 187.671 170.021 194.304 181.273C201.407 193.311 216.693 201.46 239.737 205.514C297.212 215.598 347.542 181.481 369.513 163.365C367.05 162.333 364.501 161.319 361.888 160.334C361.214 160.078 360.541 159.829 359.866 159.584C344.662 171.088 296.741 202.891 243.153 193.443C224.536 190.16 212.042 183.336 206.019 173.159C201.717 165.89 200.811 156.913 203.339 147.004C199.857 147.347 196.749 147.609 193.766 147.805L193.626 147.815L192.292 147.911Z" fill="#470E0E"/>
<path d="M256.067 202.886C255.916 204.325 255.547 205.733 254.972 207.061C253.458 210.607 250.834 213.552 248.828 216.605C250.696 228.047 252.556 239.497 254.562 250.865C254.956 253.037 254.832 255.272 254.2 257.388C253.568 259.504 252.446 261.44 250.925 263.041C244.662 269.588 237.617 275.338 229.948 280.162C228.521 281.061 226.83 281.445 225.154 281.249C223.479 281.054 221.922 280.291 220.74 279.087C217.002 275.242 213.647 271.137 210.93 266.68C208.602 262.952 206.776 258.933 205.497 254.728C204.937 252.838 205.027 250.816 205.754 248.984C206.755 246.404 207.824 243.831 208.958 241.263C212.35 233.55 216.307 225.792 220.774 217.378C221.066 216.831 221.357 216.283 221.649 215.727L222.306 214.497C220.172 211.362 218.002 208.152 216.898 204.523C216.881 204.459 216.863 204.397 216.844 204.333C216.665 203.718 216.522 203.094 216.416 202.463C215.878 199.246 216.315 195.827 218.257 193.255C219.859 191.132 222.306 189.783 224.858 189.045C230.637 187.375 236.818 188.635 242.698 189.91C246.704 190.777 251.076 191.879 253.729 194.851C254.053 195.195 254.346 195.567 254.604 195.963C255.938 197.99 256.336 200.451 256.067 202.886Z" fill="#39A1FF"/>
<g opacity="0.4">
<path d="M248.117 216.879C248.408 219.98 241.607 223.479 239.183 224.437C237.203 225.219 235.115 225.696 232.992 225.85C232.391 225.887 227.064 225.284 227.03 225.339C222.163 232.241 217.257 239.214 214.053 247.037C211.537 253.236 210.161 260.082 210.925 266.673C208.597 262.945 206.771 258.926 205.492 254.721C204.932 252.832 205.022 250.809 205.749 248.977C206.751 246.398 207.819 243.824 208.953 241.256C212.345 233.544 216.302 225.786 220.769 217.371C221.061 216.825 221.352 216.277 221.644 215.721C229.938 219.286 238.946 218.967 248.117 216.879Z" fill="white"/>
</g>
<g opacity="0.4">
<path d="M256.066 202.886C254.954 201.792 253.65 200.89 252.319 200.069C246.07 196.203 238.654 193.743 231.378 194.8C225.417 195.675 219.692 199.294 216.901 204.517C216.883 204.453 216.866 204.391 216.847 204.326C216.668 203.712 216.525 203.088 216.419 202.457C215.88 199.24 216.318 195.821 218.26 193.249C219.862 191.126 222.308 189.777 224.861 189.039C230.64 187.369 236.821 188.628 242.701 189.904C246.706 190.77 251.079 191.873 253.732 194.845C254.056 195.189 254.349 195.561 254.607 195.957C255.938 197.99 256.335 200.451 256.066 202.886Z" fill="white"/>
</g>
<g opacity="0.2">
<path d="M254.972 207.061C253.458 210.607 250.834 213.552 248.828 216.605C250.696 228.047 252.556 239.497 254.562 250.865C254.956 253.037 254.832 255.272 254.2 257.388C253.568 259.504 252.446 261.44 250.925 263.041C244.662 269.588 237.617 275.338 229.948 280.162C228.521 281.061 226.83 281.445 225.154 281.249C223.479 281.054 221.922 280.291 220.74 279.087C213.875 272.021 208.323 264.108 205.497 254.734C204.937 252.845 205.027 250.822 205.754 248.99C206.755 246.411 207.824 243.837 208.958 241.269C209.797 246.52 212.268 251.523 216.07 255.255C220.337 259.43 227.125 261.963 232.306 259C236.7 256.493 238.377 251.06 239.162 246.065C240.475 237.575 240.268 228.919 238.552 220.502C233.091 223.009 226.215 222.061 221.633 218.177C221.331 217.927 221.045 217.66 220.776 217.376C216.93 213.574 215.214 207.731 216.418 202.461C216.462 202.261 216.509 202.07 216.563 201.869C221.549 209.078 231.424 212.499 239.795 209.92C242.998 208.899 245.9 207.104 248.245 204.695C250.359 202.556 252.01 200.006 253.096 197.202C253.369 196.49 253.534 195.662 253.724 194.849C254.048 195.193 254.341 195.566 254.599 195.961C256.722 199.193 256.486 203.519 254.972 207.061Z" fill="#470E0E"/>
</g>
<path d="M226.009 284.015C224.662 284.02 223.328 283.755 222.085 283.235C220.843 282.715 219.717 281.95 218.776 280.987C210.754 272.733 205.553 264.398 202.876 255.513C202.143 253.036 202.258 250.386 203.204 247.982C207.261 237.551 212.327 227.414 219.117 214.657C217.217 211.823 215.262 208.662 214.219 205.091C212.763 200.113 213.456 195.071 216.074 191.6C217.874 189.197 220.65 187.406 224.098 186.409C230.707 184.501 237.678 186.014 243.278 187.23C248.512 188.361 253.878 189.852 256.896 194.457C259.333 198.177 259.554 203.29 257.487 208.133C256.323 210.857 254.653 213.156 253.037 215.375C252.572 216.016 252.125 216.629 251.702 217.237L251.883 218.349C253.602 228.875 255.381 239.762 257.255 250.392C258.188 255.679 256.558 261.127 252.897 264.932C246.476 271.639 239.255 277.532 231.396 282.477C229.781 283.486 227.914 284.019 226.009 284.015ZM230.962 190.972C229.156 190.952 227.357 191.186 225.617 191.668C224.015 192.131 221.817 193.066 220.444 194.893C218.859 196.995 218.495 200.233 219.469 203.559C220.444 206.885 222.539 209.968 224.566 212.954C224.848 213.366 225.011 213.848 225.037 214.346C225.064 214.845 224.953 215.341 224.717 215.78C217.632 229.045 212.413 239.39 208.297 249.971C207.795 251.235 207.731 252.632 208.115 253.938C210.532 261.961 215.302 269.564 222.695 277.169C223.442 277.921 224.423 278.397 225.477 278.517C226.53 278.638 227.593 278.396 228.491 277.832C235.969 273.126 242.839 267.518 248.948 261.135C251.402 258.571 252.492 254.915 251.862 251.334C249.981 240.673 248.201 229.77 246.479 219.227L246.122 217.041C246.01 216.365 246.158 215.672 246.535 215.099C247.195 214.095 247.913 213.108 248.608 212.153C250.111 210.089 251.529 208.148 252.453 205.983C253.493 203.546 254.003 200.025 252.316 197.451C250.433 194.568 246.418 193.502 242.119 192.571C238.577 191.81 234.717 190.972 230.962 190.972Z" fill="#470E0E"/>
<path d="M234.386 221.358C228.211 221.358 222.658 218.906 219.53 214.801C219.312 214.516 219.153 214.19 219.061 213.843C218.969 213.496 218.947 213.134 218.995 212.778C219.043 212.422 219.16 212.079 219.341 211.768C219.521 211.458 219.761 211.186 220.047 210.968C220.333 210.75 220.658 210.591 221.006 210.499C221.353 210.407 221.715 210.385 222.071 210.433C222.427 210.481 222.77 210.598 223.08 210.779C223.391 210.959 223.662 211.199 223.88 211.485C225.981 214.242 229.908 215.886 234.386 215.886C239.45 215.886 244.149 215.245 247.972 214.036C248.664 213.817 249.414 213.881 250.058 214.215C250.702 214.549 251.186 215.126 251.405 215.817C251.625 216.509 251.56 217.259 251.226 217.903C250.892 218.547 250.315 219.032 249.624 219.251C245.271 220.629 240.003 221.358 234.386 221.358Z" fill="#470E0E"/>
<path d="M392.229 41.9078C391.965 43.3952 391.624 44.868 391.208 46.3202C387.725 58.7098 379.128 69.8961 367.632 75.8578C374.907 84.5464 373.895 97.846 370.066 109.069C366.237 120.292 359.938 130.61 356.885 142.061C353.831 153.512 354.76 167.194 363.494 175.218C363.494 175.218 349.108 176.165 341.295 163.248C341.295 163.248 288.366 181.271 252.811 185.783C252.811 185.783 217.941 190.934 215.89 160.686L207.011 172.155C207.011 172.155 199.961 149.737 212.224 129.335C212.444 129.106 212.671 128.878 212.901 128.661C203.537 125.642 195.962 118.407 192.713 109.47C205.175 112.834 217.903 111.895 229.124 107.227C240.425 102.5 249.918 94.2851 256.219 83.7806C247.32 93.525 234.32 99.3216 221.339 98.9868C209.406 98.6856 197.664 93.5169 185.858 95.2665C175.948 96.7245 166.941 103.353 162.602 112.378C155.482 90.2886 159.867 66.1679 172.877 47.9063C183.433 33.0926 199.487 22.3805 217.118 17.9873C219.756 17.3196 222.431 16.8018 225.128 16.4364C226.606 16.2282 228.1 16.0728 229.595 15.9558C231.085 14.4095 232.722 13.0112 234.482 11.7805C246.197 3.53896 263.116 2.29888 278.05 5.13473C295.215 8.37913 311.288 16.0103 328.39 19.5655C345.492 23.1207 365.211 21.7717 377.682 9.53749C377.692 9.60959 377.71 9.69771 377.719 9.765C377.9 10.9234 378.028 12.117 378.102 13.3298C378.165 14.351 378.186 15.3902 378.165 16.4477C378.019 25.5464 374.883 35.4462 368.872 43.1943C369.287 43.4529 369.715 43.6903 370.154 43.9057C370.915 44.3107 371.708 44.6551 372.523 44.9359C378.982 47.2318 386.531 45.9645 392.229 41.9078Z" fill="#994E31"/>
<g opacity="0.45">
<path d="M378.152 16.4557C375.956 18.2052 373.677 19.7641 371.753 21.102C362.044 27.7846 350.548 31.9134 338.771 32.6376C320.464 33.7591 302.722 27.1678 285.148 21.903C267.573 16.6383 248.427 12.6809 231.182 18.907C232.165 16.4829 233.264 14.1005 234.463 11.7885C246.178 3.54696 263.097 2.30688 278.031 5.14272C295.196 8.38712 311.269 16.0183 328.371 19.5735C345.473 23.1287 365.192 21.7797 377.663 9.54549C377.673 9.61759 377.691 9.7057 377.7 9.773C377.883 10.9314 378.009 12.125 378.083 13.3378C378.15 14.3589 378.173 15.3982 378.152 16.4557Z" fill="white"/>
</g>
<g opacity="0.3">
<path d="M367.632 74.2748C374.908 82.9634 373.895 96.2646 370.066 107.486C366.237 118.708 359.939 129.029 356.885 140.478C353.831 151.927 354.761 165.613 363.494 173.643C363.494 173.643 349.108 174.592 341.296 161.673C341.296 161.673 309.52 201.952 251.254 191.251C210.573 183.779 207.007 170.583 207.007 170.583C207.007 170.583 199.957 148.165 212.22 127.763C212.44 127.536 212.667 127.308 212.896 127.089C203.533 124.072 195.958 116.835 192.709 107.9C205.17 111.272 217.898 110.324 229.12 105.657C240.42 100.929 249.913 92.7134 256.214 82.2088C247.316 91.9548 234.316 97.7499 221.335 97.415C209.402 97.1138 197.66 91.9452 185.853 93.6964C175.944 95.1543 166.936 101.783 162.598 110.808C155.478 88.7184 159.863 64.5961 172.872 46.3361C183.429 31.5225 199.483 20.8103 217.113 16.4156C233.76 17.3272 250.134 23.8545 262.134 35.4606C283.339 55.954 289.051 93.9063 275.719 120.216C288.2 119.65 300.65 112.748 311.427 106.437C298.6 128.563 272.308 142.101 246.859 139.685L251.094 150.006C253.164 155.055 258.827 157.674 263.972 155.859C269.125 154.048 273.849 151.192 277.847 147.47C277.702 156.903 278.889 166.31 281.371 175.412C292.975 168.193 302.041 157.537 307.307 144.926C307.049 151.696 308.095 158.453 310.388 164.828C321.729 154.425 328.913 139.611 330.061 124.259C330.262 127.004 330.463 129.748 330.664 132.491C344.838 114.424 350.691 90.0819 346.28 67.5377C363.409 65.9596 379.727 57.5097 391.215 44.7468C387.725 57.1284 379.128 68.3131 367.632 74.2748Z" fill="#470E0E"/>
</g>
<path d="M362.777 180.087C359.262 180.087 346.459 179.198 338.958 166.789C338.583 166.168 338.469 165.424 338.643 164.72C338.817 164.015 339.263 163.409 339.884 163.034C340.505 162.658 341.249 162.545 341.953 162.719C342.658 162.893 343.264 163.339 343.639 163.96C347.43 170.231 352.932 172.829 357.158 173.893C351.56 164.774 351.759 152.744 354.241 143.473C356.029 136.769 358.895 130.431 361.669 124.303C363.729 119.748 365.86 115.039 367.478 110.303C369.535 104.268 373.469 89.2071 365.533 79.7318C365.27 79.4177 365.082 79.0487 364.981 78.6519C364.88 78.2552 364.869 77.8408 364.949 77.4394C365.03 77.038 365.199 76.6597 365.445 76.3324C365.691 76.0052 366.008 75.7373 366.371 75.5486C376.53 70.2774 384.498 60.5282 388.101 49.3034C381.212 51.9117 373.477 51.4022 367.42 47.6451C367.094 47.443 366.814 47.1745 366.598 46.8571C366.383 46.5397 366.236 46.1804 366.168 45.8027C366.1 45.425 366.113 45.0372 366.205 44.6645C366.296 44.2919 366.465 43.9427 366.701 43.6397C372.4 36.2969 375.601 26.3362 375.425 17.1414C363.795 25.6777 346.797 28.3181 327.818 24.364C319.422 22.6176 311.21 19.8875 303.266 17.2487C294.895 14.4657 286.24 11.5898 277.527 9.94281C262.67 7.12459 242.795 8.28296 231.545 19.9724C231.077 20.4582 230.446 20.7543 229.773 20.8039C228.286 20.9129 226.846 21.0651 225.49 21.2574C205.524 23.981 186.687 35.3276 175.088 51.6073C163.421 67.9847 159.282 88.5406 163.566 107.683C168.833 100.757 176.768 95.9458 185.444 94.6689C192.814 93.5746 200.077 94.9893 207.094 96.3672C211.805 97.2884 216.678 98.2417 221.392 98.3603C233.455 98.6647 245.713 93.3215 254.184 84.0449C254.641 83.5462 255.267 83.2347 255.94 83.1706C256.614 83.1065 257.287 83.2944 257.83 83.6978C258.373 84.1013 258.748 84.6917 258.881 85.355C259.014 86.0184 258.896 86.7075 258.551 87.2893C251.956 98.3045 242.009 106.92 230.165 111.875C219.873 116.164 208.566 117.412 197.585 115.471C201.273 121.506 207.005 126.016 213.738 128.178C214.188 128.323 214.593 128.583 214.913 128.931C215.233 129.279 215.457 129.704 215.564 130.165C215.67 130.626 215.655 131.106 215.52 131.56C215.385 132.013 215.135 132.423 214.794 132.751C214.645 132.895 214.495 133.046 214.347 133.195C200.12 153.952 210.869 170.328 211.335 171.017C211.699 171.615 211.82 172.33 211.673 173.015C211.526 173.699 211.122 174.301 210.545 174.697C209.967 175.092 209.259 175.251 208.568 175.141C207.877 175.03 207.254 174.659 206.828 174.103C206.287 173.315 194.118 155.077 208.567 132.041C200.04 128.244 193.288 121.158 190.142 112.524C189.97 112.053 189.931 111.544 190.029 111.053C190.127 110.561 190.358 110.106 190.697 109.737C191.036 109.368 191.47 109.1 191.951 108.96C192.432 108.821 192.942 108.817 193.426 108.947C205.122 112.117 217.111 111.38 228.073 106.82C231.867 105.24 235.469 103.233 238.808 100.836C233.169 102.938 227.201 104 221.262 103.838C216.089 103.707 210.987 102.717 206.053 101.744C199.187 100.401 192.702 99.1341 186.253 100.091C177.299 101.408 168.982 107.528 165.061 115.681C164.824 116.174 164.445 116.585 163.972 116.86C163.5 117.135 162.956 117.262 162.41 117.225C161.865 117.187 161.343 116.987 160.912 116.651C160.481 116.314 160.161 115.856 159.993 115.335C152.774 92.9385 156.755 67.9302 170.643 48.4382C183.1 30.9537 203.327 18.7692 224.747 15.8452C225.896 15.685 227.108 15.544 228.355 15.4351C239.304 4.72935 257.96 0.671044 278.546 4.57233C287.618 6.28826 296.45 9.21863 304.993 12.0625C312.788 14.6532 320.847 17.332 328.933 19.0127C338.194 20.9433 361.289 23.8993 375.755 9.7105C376.112 9.36022 376.559 9.11464 377.046 9.00051C377.533 8.88637 378.042 8.90806 378.518 9.0632C378.993 9.21834 379.417 9.501 379.743 9.88039C380.07 10.2598 380.285 10.7214 380.367 11.2149C382.199 22.2315 379.371 34.6243 372.949 44.3142C378.536 46.4819 385.315 45.596 390.642 41.7988C391.085 41.4835 391.611 41.3072 392.154 41.2923C392.697 41.2774 393.232 41.4245 393.691 41.715C394.151 42.0055 394.513 42.4262 394.732 42.9233C394.951 43.4205 395.017 43.9716 394.922 44.5065C392.393 58.6649 383.586 71.556 371.634 78.8555C376.727 87.0618 377.133 98.9419 372.656 112.07C370.953 117.054 368.768 121.885 366.653 126.559C363.849 132.757 361.205 138.613 359.526 144.884C356.921 154.622 357.081 167.731 365.344 175.325C365.738 175.688 366.017 176.158 366.147 176.677C366.276 177.196 366.251 177.742 366.073 178.247C365.895 178.752 365.573 179.194 365.147 179.517C364.72 179.841 364.209 180.032 363.674 180.068C363.591 180.069 363.279 180.087 362.777 180.087Z" fill="#470E0E"/>
<path d="M282.348 83.3432C281.592 89.7695 279.513 95.9314 276.42 101.576C270.138 113.017 259.646 122.306 247.493 127.302C236.408 131.86 222.096 132.954 213.463 130.783C206.78 129.098 195.767 122.981 192.768 111.631C205.239 114.986 217.967 114.018 229.179 109.334C240.471 104.587 249.951 96.3554 256.236 85.8409C247.347 95.6046 234.357 101.42 221.376 101.102C220.819 101.082 220.255 101.065 219.699 101.028C219.143 100.991 218.577 100.956 218.029 100.901C217.549 100.855 217.082 100.81 216.608 100.754C216.507 100.754 216.398 100.736 216.297 100.719L214.802 100.526C214.721 100.509 214.629 100.499 214.548 100.482C214.067 100.418 213.572 100.344 213.088 100.262C212.997 100.262 212.898 100.235 212.806 100.217C211.766 100.044 210.736 99.8615 209.698 99.6693C207.255 99.2143 204.821 98.708 202.386 98.2834L200.498 97.963C199.942 97.8717 199.377 97.7803 198.821 97.7066C198.403 97.6441 197.973 97.5801 197.539 97.5256L195.879 97.3333C195.506 97.2965 195.141 97.2596 194.767 97.2324H194.758C191.805 96.9873 188.851 96.9953 185.888 97.4423C175.979 98.9195 166.982 105.565 162.657 114.586C160.31 107.332 159.155 99.7462 159.238 92.1231C159.378 77.0604 164.117 62.4002 172.821 50.1061C174.946 47.1168 177.293 44.2917 179.841 41.6546C191.774 29.2378 207.947 20.9065 225.023 18.5545C225.824 18.617 226.601 18.7147 227.394 18.8093C228.77 18.9919 230.137 19.2098 231.505 19.4838C243.479 21.8538 254.567 27.4815 263.549 35.7474C268.915 40.7185 273.348 46.6096 276.638 53.1422H276.648C281.338 62.4845 283.573 72.9771 282.348 83.3432Z" fill="#FEA831"/>
<g opacity="0.6">
<path d="M276.632 53.1406C264.853 43.7213 251.659 36.223 237.539 30.9233C232.572 29.0631 227.274 27.4594 222.041 28.2893C217.928 28.9302 214.209 31.0242 210.6 33.075C201.429 38.2805 192.165 43.5404 184.363 50.6332C172.228 61.6545 164.351 76.4138 159.237 92.1295C159.377 77.0668 164.117 62.4067 172.821 50.1125C174.945 47.1232 177.292 44.2981 179.841 41.661C191.774 29.2442 207.947 20.9129 225.023 18.5609C225.824 18.6234 226.601 18.7211 227.394 18.8157C228.77 18.9983 230.137 19.2162 231.505 19.4902C243.479 21.8602 254.567 27.4879 263.548 35.7538C268.911 40.723 273.342 46.6113 276.632 53.1406Z" fill="white"/>
</g>
<path d="M223.456 134.145C219.594 134.145 215.974 133.773 212.896 132.999C206.192 131.307 193.945 125.027 190.56 112.222C190.458 111.836 190.46 111.43 190.564 111.044C190.669 110.659 190.873 110.307 191.156 110.025C191.439 109.744 191.791 109.541 192.178 109.438C192.564 109.335 192.97 109.336 193.356 109.439C205.161 112.615 217.243 111.854 228.283 107.236C233.183 105.187 237.757 102.434 241.863 99.0653C235.376 102.028 228.302 103.551 221.309 103.391C216.172 103.269 211.089 102.284 206.171 101.331C199.265 99.9913 192.739 98.7272 186.215 99.703C177.118 101.058 168.674 107.291 164.706 115.582C164.509 115.993 164.193 116.336 163.8 116.566C163.406 116.796 162.953 116.903 162.498 116.873C162.043 116.842 161.608 116.677 161.249 116.397C160.889 116.117 160.621 115.735 160.481 115.302C153.271 93.0523 157.188 68.1978 170.962 48.7907C183.321 31.3879 203.413 19.2419 224.704 16.3003C224.875 16.276 225.049 16.2717 225.221 16.2875C226.042 16.3628 226.851 16.4477 227.669 16.5566C241.645 18.4154 254.708 24.5344 265.082 34.0812C279.181 47.1229 286.666 66.1038 284.607 83.6139C282.284 103.335 268.052 121.313 248.345 129.415C240.921 132.463 231.649 134.145 223.456 134.145ZM196.368 114.807C200.418 123.101 209.331 127.39 214.009 128.571C222.631 130.74 236.651 129.289 246.622 125.19C264.821 117.708 277.957 101.175 280.088 83.0724C281.98 66.9818 275.047 49.4893 261.994 37.4105C252.318 28.508 240.134 22.8019 227.101 21.0683C226.429 20.985 225.756 20.9081 225.077 20.8424C205.103 23.6767 186.282 35.0938 174.687 51.4215C162.775 68.1978 158.702 89.3129 163.406 108.851C168.577 101.587 176.666 96.5146 185.55 95.1864C192.848 94.0937 200.067 95.4924 207.048 96.8463C211.779 97.7627 216.672 98.7128 221.426 98.825C233.641 99.1214 245.998 93.698 254.543 84.3077C254.923 83.8899 255.444 83.6281 256.006 83.573C256.568 83.5179 257.13 83.6734 257.584 84.0095C258.038 84.3455 258.351 84.8381 258.462 85.3917C258.573 85.9453 258.475 86.5205 258.186 87.0057C251.655 97.9439 241.795 106.505 230.049 111.436C219.369 115.898 207.806 117.042 196.368 114.807Z" fill="#470E0E"/>
<g opacity="0.6">
<path d="M263.504 60.8198C271.937 60.8198 278.774 53.9831 278.774 45.5496C278.774 37.116 271.937 30.2792 263.504 30.2792C255.07 30.2792 248.233 37.116 248.233 45.5496C248.233 53.9831 255.07 60.8198 263.504 60.8198Z" fill="white"/>
<path d="M212.852 31.7549C219.065 31.1402 223.604 25.6051 222.989 19.3919C222.374 13.1787 216.839 8.64019 210.626 9.25487C204.413 9.86956 199.874 15.4047 200.489 21.6179C201.104 27.8311 206.639 32.3696 212.852 31.7549Z" fill="white"/>
</g>
<path d="M263.503 63.5531C259.942 63.5531 256.461 62.4972 253.5 60.5189C250.54 58.5406 248.232 55.7288 246.869 52.4389C245.506 49.1491 245.149 45.529 245.844 42.0364C246.538 38.5438 248.253 35.3356 250.771 32.8174C253.288 30.2992 256.496 28.5841 259.989 27.889C263.481 27.1939 267.101 27.55 270.391 28.9123C273.681 30.2746 276.494 32.5819 278.473 35.5424C280.451 38.5029 281.508 41.9837 281.508 45.5447C281.504 50.319 279.606 54.8965 276.23 58.2727C272.855 61.649 268.278 63.548 263.503 63.5531ZM263.503 33.0141C261.024 33.0147 258.6 33.7506 256.539 35.1286C254.478 36.5066 252.872 38.4648 251.924 40.7557C250.976 43.0466 250.728 45.5672 251.213 47.9988C251.697 50.4303 252.892 52.6636 254.645 54.4162C256.399 56.1688 258.633 57.362 261.065 57.8448C263.497 58.3277 266.017 58.0786 268.308 57.129C270.598 56.1794 272.555 54.5719 273.932 52.5099C275.309 50.4479 276.043 48.024 276.042 45.5447C276.037 42.2214 274.714 39.0357 272.364 36.6865C270.013 34.3374 266.827 33.0166 263.503 33.0141Z" fill="#470E0E"/>
<path d="M211.75 34.5185C208.973 34.5188 206.258 33.6957 203.949 32.1532C201.64 30.6106 199.841 28.418 198.778 25.8526C197.715 23.2872 197.437 20.4642 197.978 17.7406C198.52 15.0171 199.857 12.5153 201.82 10.5516C203.784 8.58793 206.285 7.2506 209.009 6.70874C211.732 6.16688 214.555 6.44482 217.121 7.50742C219.686 8.57001 221.879 10.3695 223.422 12.6784C224.965 14.9873 225.788 17.7018 225.788 20.4787C225.784 24.2007 224.304 27.7691 221.672 30.4011C219.04 33.0331 215.472 34.5139 211.75 34.5185ZM211.75 11.9087C210.055 11.9087 208.398 12.4113 206.989 13.353C205.579 14.2947 204.481 15.6331 203.832 17.1991C203.184 18.765 203.014 20.4882 203.345 22.1506C203.675 23.813 204.491 25.3401 205.69 26.5386C206.889 27.7371 208.416 28.5534 210.078 28.884C211.74 29.2147 213.464 29.045 215.03 28.3963C216.596 27.7477 217.934 26.6493 218.876 25.2399C219.817 23.8306 220.32 22.1737 220.32 20.4787C220.317 18.2066 219.414 16.0282 217.807 14.4216C216.2 12.8149 214.022 11.9112 211.75 11.9087Z" fill="#470E0E"/>
<path d="M236.629 22.2186C213.735 29.885 193.671 46.2336 181.482 67.3871C181.326 67.6667 181.065 67.8729 180.758 67.9603C180.45 68.0478 180.119 68.0093 179.84 67.8533C179.56 67.6974 179.354 67.4367 179.267 67.1288C179.179 66.8208 179.218 66.4907 179.374 66.2111C191.239 44.1844 211.383 26.6487 235.118 17.9184C235.682 17.7218 236.301 17.7546 236.842 18.0098C237.382 18.265 237.801 18.7222 238.007 19.2829C238.214 19.8437 238.192 20.4632 237.947 21.0081C237.701 21.553 237.252 21.9796 236.695 22.1962L236.629 22.2186Z" fill="#470E0E"/>
<path d="M331.594 130.28C331.188 133.854 330.546 137.398 329.672 140.887C328.763 144.386 327.589 147.866 325.943 151.181C324.306 154.555 322.166 157.661 319.596 160.392C316.964 163.119 313.915 165.411 310.564 167.182C310.036 167.463 309.419 167.524 308.847 167.35C308.274 167.176 307.794 166.783 307.512 166.256C307.392 166.031 307.311 165.788 307.272 165.536V165.485C306.791 162.301 306.857 159.253 306.754 156.38C306.652 153.507 306.405 150.783 305.609 148.282L310.027 148.677C308.212 152.112 306.15 155.129 304.011 158.152C301.872 161.175 299.613 164.067 297.236 166.893C294.858 169.72 292.378 172.47 289.659 175.064C288.287 176.389 286.842 177.636 285.333 178.802C283.777 179.975 282.113 181.098 279.948 181.899C279.564 182.041 279.15 182.086 278.744 182.029C278.338 181.972 277.952 181.816 277.622 181.573C277.291 181.331 277.025 181.011 276.848 180.641C276.671 180.272 276.589 179.864 276.608 179.454V179.371C276.81 175.542 276.407 171.597 275.749 167.661C275.09 163.724 274.187 159.767 273.256 155.766L278.078 156.069C276.795 159.545 275.155 162.878 273.184 166.015C271.197 169.166 268.85 172.074 266.19 174.681C263.54 177.275 260.618 179.575 257.475 181.542C254.363 183.494 251.087 185.171 247.684 186.555H247.674C247.112 186.785 246.484 186.797 245.914 186.588C245.344 186.379 244.872 185.964 244.591 185.426C243.23 182.758 242.029 180.011 240.995 177.2C239.952 174.414 239.059 171.592 238.287 168.741C237.515 165.889 236.829 163.024 236.254 160.129C235.962 158.683 235.704 157.226 235.478 155.758C235.256 154.276 235.044 152.831 234.943 151.224L238.412 153.132L229.326 158.099C226.304 159.764 223.254 161.38 220.213 163.014L220.15 163.05C219.918 163.175 219.663 163.253 219.4 163.279C219.137 163.306 218.872 163.281 218.619 163.205C218.366 163.129 218.13 163.003 217.926 162.836C217.721 162.669 217.552 162.464 217.427 162.231C217.406 162.192 217.385 162.149 217.367 162.111C216.469 159.924 215.716 157.795 215.003 155.603C214.29 153.411 213.663 151.216 213.117 148.987C212.047 144.532 211.253 139.953 211.41 135.292C211.422 135.06 211.521 134.841 211.689 134.68C211.856 134.52 212.078 134.429 212.311 134.426C212.543 134.424 212.767 134.511 212.937 134.668C213.108 134.826 213.212 135.043 213.227 135.274V135.292C213.442 139.66 214.557 143.981 215.951 148.173C216.656 150.271 217.438 152.343 218.298 154.388C219.151 156.42 220.08 158.472 221.056 160.38L218.212 159.477C221.193 157.726 224.167 155.952 227.168 154.236L236.148 149.045C236.411 148.893 236.701 148.794 237.002 148.754C237.303 148.714 237.609 148.734 237.903 148.813C238.196 148.891 238.471 149.027 238.712 149.211C238.953 149.396 239.156 149.626 239.308 149.889C239.483 150.19 239.587 150.527 239.612 150.875V150.953C239.7 152.235 239.912 153.655 240.131 155.031C240.351 156.407 240.612 157.811 240.906 159.196C241.48 161.974 242.153 164.727 242.925 167.457C244.465 172.905 246.376 178.251 248.913 183.171L245.819 182.05C248.953 180.761 251.969 179.203 254.834 177.394C257.673 175.603 260.31 173.511 262.699 171.155C265.078 168.807 267.175 166.19 268.948 163.357C270.722 160.505 272.197 157.477 273.347 154.321C273.535 153.814 273.881 153.382 274.333 153.086C274.786 152.791 275.321 152.648 275.86 152.68C276.4 152.712 276.915 152.915 277.33 153.262C277.745 153.608 278.037 154.078 278.165 154.603V154.625C279.107 158.621 280.07 162.678 280.761 166.839C281.451 171 281.882 175.279 281.64 179.656L278.304 177.13C279.551 176.676 280.969 175.809 282.294 174.795C283.658 173.75 284.964 172.63 286.205 171.44C288.752 168.989 291.165 166.403 293.434 163.692C295.729 160.973 297.931 158.172 300.039 155.29C302.122 152.421 304.168 149.441 305.766 146.478L305.79 146.434C306.014 146.018 306.356 145.677 306.773 145.456C307.19 145.234 307.664 145.141 308.134 145.188C308.604 145.235 309.05 145.421 309.414 145.721C309.779 146.021 310.047 146.422 310.184 146.874C311.146 150.027 311.368 153.249 311.425 156.264C311.481 159.28 311.405 162.164 311.777 164.834L308.478 163.138C311.463 161.663 314.202 159.735 316.598 157.423C319.025 155.137 321.033 152.408 322.784 149.486C324.511 146.49 325.979 143.352 327.171 140.107C328.425 136.84 329.455 133.461 330.497 130.063C330.538 129.93 330.628 129.818 330.748 129.747C330.867 129.677 331.009 129.654 331.145 129.682C331.281 129.71 331.402 129.788 331.484 129.9C331.566 130.012 331.604 130.15 331.589 130.288L331.594 130.28Z" fill="#470E0E"/>
<g opacity="0.3">
<path d="M368.862 43.2023C369.277 43.4609 369.705 43.6983 370.144 43.9137C368.731 44.4969 367.291 45.008 365.85 45.455C354.51 48.9461 342.276 48.7635 330.603 46.5765C349.648 41.4495 366.603 29.3371 378.091 13.3378C378.69 23.2377 375.572 34.5602 368.862 43.2023Z" fill="#470E0E"/>
</g>
<g opacity="0.3">
<path d="M450.4 245.656C444.219 244.908 438.02 244.33 431.802 243.922C419.626 243.121 407.079 243.03 395.502 246.694L424.291 236.54C428.238 235.144 432.879 233.548 435.33 229.902C435.589 229.513 435.792 229.09 435.933 228.644C443.149 230.846 449.032 237.254 450.4 245.656Z" fill="#470E0E"/>
</g>
<g opacity="0.3">
<path d="M276.414 101.576C270.132 113.017 259.64 122.306 247.487 127.302C236.402 131.86 222.089 132.954 213.457 130.783C206.774 129.098 195.761 122.981 192.762 111.631C205.233 114.986 217.961 114.018 229.173 109.334C240.465 104.587 249.945 96.3554 256.23 85.8409C247.341 95.6046 234.351 101.42 221.37 101.102C220.812 101.082 220.249 101.065 219.693 101.028C219.137 100.991 218.571 100.956 218.023 100.901C217.542 100.855 217.076 100.81 216.602 100.754C216.501 100.754 216.392 100.736 216.291 100.719L214.796 100.526C214.715 100.509 214.623 100.499 214.542 100.482C214.061 100.417 213.566 100.344 213.082 100.262C212.991 100.262 212.891 100.235 212.8 100.217C211.76 100.044 210.73 99.8615 209.692 99.6693C207.248 99.2142 204.815 98.708 202.379 98.2834C201.751 98.1648 201.122 98.058 200.492 97.963C199.936 97.8716 199.371 97.7803 198.815 97.7066C198.396 97.6441 197.967 97.58 197.533 97.5255C196.977 97.4518 196.421 97.3878 195.873 97.3333C195.5 97.2964 195.134 97.2596 194.761 97.2324H194.752C191.799 96.9872 188.844 96.9952 185.882 97.4423C175.972 98.9195 166.976 105.565 162.65 114.585C155.494 92.5156 159.842 68.3836 172.815 50.1061C174.94 47.1168 177.286 44.2917 179.835 41.6546C179.342 43.1142 179.366 44.7756 178.576 46.1119C171.144 58.6905 161.768 69.0582 167.433 84.4278C176.029 79.0221 211.597 83.8462 222.016 82.8513C232.435 81.8563 242.977 78.4196 251.137 72.0318C254.541 69.3674 259.579 71.6152 259.789 75.9331C260.228 85.1023 257.589 94.4382 252.194 101.877C247.673 108.105 241.091 113.756 240.78 121.441C249.506 120.174 257.864 116.737 265.113 111.724C269.29 108.827 273.086 105.418 276.414 101.576Z" fill="#470E0E"/>
</g>
<path d="M319.444 42.3404C312.091 39.9018 303.76 47.2734 300.833 58.8027C297.906 70.3319 301.495 81.6561 308.844 84.0946C316.193 86.5331 324.527 79.1615 327.455 67.6306C330.382 56.0998 326.794 44.7821 319.444 42.3404Z" fill="#470E0E"/>
<path d="M318.126 47.1549C315.563 47.7172 313.9 51.4968 314.4 55.5967C314.9 59.6967 317.377 62.563 319.934 62.0054C322.491 61.4478 324.16 57.6635 323.662 53.5636C323.164 49.4636 320.685 46.5925 318.126 47.1549Z" fill="white"/>
<path d="M306.046 70.6988C304.773 71.3589 304.284 73.5346 304.949 75.5582C305.614 77.5817 307.192 78.6888 308.466 78.0271C309.739 77.3654 310.228 75.1913 309.563 73.1677C308.898 71.1442 307.32 70.0355 306.046 70.6988Z" fill="#B199C5"/>
</svg>
